<svg width="56" height="56" viewBox="0 0 56 56" fill="none" xmlns="http://www.w3.org/2000/svg">
<circle cx="28" cy="28" r="28" fill="#333745"/>
<path d="M14.096 17.088C11.088 17.088 6.992 19.136 6.992 23.296C6.992 30.752 19.376 31.68 19.376 36.864C19.376 39.072 17.584 40.32 15.184 40.32C11.216 40.32 8.688 37.376 6.64 32.128L7.472 39.936C7.6 39.136 7.984 38.784 8.56 38.784C9.968 38.784 11.6 40.512 15.312 40.512C18.864 40.512 22.832 38.304 22.832 33.856C22.832 27.712 10.512 26.464 10.512 20.992C10.512 18.336 12.336 17.28 14.224 17.28C17.712 17.28 19.92 19.84 21.712 24.448L20.976 17.6C20.88 18.304 20.528 18.592 20.016 18.592C18.8 18.592 17.36 17.088 14.096 17.088ZM31.2128 17.088L23.6288 40.512H24.2688L31.8528 17.088H31.2128ZM41.472 28.704H40.096V17.792H43.264C48.096 17.792 49.12 20.704 50.144 23.264L49.504 17.6H32.96C34.816 17.952 35.296 19.68 35.296 20.448V37.152C35.296 37.92 34.816 39.648 32.96 40H42.432C40.576 39.648 40.096 37.92 40.096 37.152V28.896H41.472C43.104 28.896 44.896 30.592 44.896 32.192V25.408C44.896 27.008 43.104 28.704 41.472 28.704Z" fill="#FBFBFA"/>
</svg>
